<?xml version="1.0" standalone="no"?>
<!DOCTYPE svg PUBLIC "-//W3C//DTD SVG 1.1//EN" "http://www.w3.org/Graphics/SVG/1.1/DTD/svg11.dtd" >
<svg>
<metadata>
Created by FontForge 20090622 at Mon May  8 14:01:38 2017
 By deploy user
Copyright (c) 2016 by Luis Calzadikka. All rights reserved.
</metadata>
<defs>
<font id="L-7Stencil" horiz-adv-x="833" >
  <font-face 
    font-family="L-7 Stencil"
    font-weight="400"
    font-stretch="normal"
    units-per-em="1000"
    panose-1="0 0 5 6 2 0 0 2 0 4"
    ascent="750"
    descent="-250"
    x-height="714.5"
    cap-height="723"
    bbox="0 -23 1076.13 898.4"
    underline-thickness="50"
    underline-position="-50"
    unicode-range="U+000D-U+2014"
  />
<missing-glyph horiz-adv-x="500" 
 />
    <glyph glyph-name=".notdef" horiz-adv-x="500" 
 />
    <glyph glyph-name="NULL" horiz-adv-x="0" 
 />
    <glyph glyph-name="NULL" horiz-adv-x="0" 
 />
    <glyph glyph-name="nonmarkingreturn" unicode="&#xd;" horiz-adv-x="500" 
 />
    <glyph glyph-name="space" unicode=" " horiz-adv-x="300" 
 />
    <glyph glyph-name="H" unicode="H" horiz-adv-x="653" 
d="M545 723q16 0 27 -11t11 -27v-644q0 -16 -11 -27t-27 -11t-27 11t-11 27v644q0 16 11 27t27 11zM108 720q16 0 27 -11t11 -27v-644q0 -16 -11 -27t-27 -11t-27 11t-11 27v644q0 16 11 27t27 11zM451 398q16 0 27 -11t11 -27t-11 -27t-27 -11h-249q-16 0 -27 11t-11 27
t11 27t27 11h249z" />
    <glyph glyph-name="I" unicode="I" horiz-adv-x="520" 
d="M412 76q16 0 27 -11t11 -27t-11 -27t-27 -11h-304q-16 0 -27 11t-11 27t11 27t27 11h114v493q0 16 11 27t27 11t27 -11t11 -27v-493h114zM412 723q16 0 27 -11t11 -27t-11 -27t-27 -11h-304q-16 0 -27 11t-11 27t11 27t27 11h304z" />
    <glyph glyph-name="J" unicode="J" horiz-adv-x="588" 
d="M377 618q14 0 24 -10t10 -24v-262q0 -3 -1 -5v-122q0 -20 -5 -48.5t-19.5 -57t-39.5 -52.5t-64 -35q-3 -1 -9 -1q-11 0 -20.5 7t-12.5 18q-4 14 3 26t21 16q30 8 45.5 28.5t22.5 42t8 38.5l1 17l1 260q0 5 1 7v123q0 14 10 24t24 10zM514 722q14 0 24 -10t10 -24t-10 -24
t-24 -10h-274q-14 0 -24 10t-10 24t10 24t24 10h274zM186 68q14 -4 21.5 -16t3.5 -26q-3 -12 -12.5 -19t-20.5 -7q-6 0 -9 1q-39 10 -63 33t-37 50.5t-16.5 55.5t-1.5 48q1 14 12 23.5t25 8.5q14 -2 23.5 -13t7.5 -25v-16.5t6 -35t20 -37.5t41 -25z" />
    <glyph glyph-name="L" unicode="L" horiz-adv-x="528" 
d="M412 73q15 0 25.5 -10.5t10.5 -25.5q0 -16 -10.5 -26.5t-25.5 -10.5h-295q-16 0 -26.5 10.5t-10.5 26.5q0 15 10.5 25.5t26.5 10.5h295zM117 105q-16 0 -26.5 11t-10.5 26v550q0 16 10.5 26.5t26.5 10.5q15 0 25.5 -10.5t10.5 -26.5v-550q0 -15 -10.5 -26t-25.5 -11z" />
    <glyph glyph-name="K" unicode="K" horiz-adv-x="619" 
d="M143 269q0 -2 -2 -2v-230q0 -15 -10 -26t-25 -11q-16 0 -26 11t-10 26v654q0 16 10 26.5t26 10.5q15 0 25 -10.5t10 -26.5v-312l292 332q11 11 26 12.5t26 -8.5q12 -11 13 -26t-9 -27zM549 62q11 -11 10 -26t-12 -26q-11 -10 -26 -10t-27 12l-255 277q-11 11 -10 26
t12 26t26 10t26 -12z" />
    <glyph glyph-name="M" unicode="M" horiz-adv-x="776" 
d="M427 330q9 -12 7 -26.5t-15 -23.5q-10 -8 -20 -8q-20 0 -30 15l-216 289l3 -533q0 -14 -10 -25t-26 -11q-14 0 -24.5 10.5t-11.5 25.5l-4 639q0 4 1 6q-5 21 14 35q11 9 26 6.5t24 -14.5zM696 47q0 -15 -10.5 -25.5t-24.5 -10.5q-16 -1 -26.5 10t-10.5 25l-4 535
l-140 -202q-11 -15 -29 -15q-13 0 -21 7q-13 8 -15 22t6 26l204 297q0 1 0.5 1t0.5 1v1q1 0 1 0.5t1 0.5l3 3q0 2 2 2l3 3q1 0 1.5 0.5t1.5 0.5q2 2 4 2q1 0 1 0.5t1 0.5t2 0.5t3 0.5h3q1 0 1.5 0.5t1.5 0.5q2 0 3.5 -0.5t3.5 -0.5q7 -1 13 -6q16 -10 16 -29z" />
    <glyph glyph-name="N" unicode="N" horiz-adv-x="648" 
d="M531 732q15 0 25.5 -10.5t10.5 -26.5v-653v-3q2 -22 -19 -35q-7 -4 -17 -4t-18.5 5t-13.5 14l-177 285q-7 14 -3 28t18 21q13 8 27.5 4t21.5 -18l108 -174v530q0 16 11 26.5t26 10.5zM325 429q8 -13 3.5 -27.5t-17.5 -21.5q-10 -5 -18 -5q-21 0 -32 19l-108 174v-526
q0 -15 -10.5 -25.5t-26.5 -10.5q-15 0 -25.5 10.5t-10.5 25.5v654q0 22 19 33q14 8 28 3.5t22 -18.5z" />
    <glyph glyph-name="O" unicode="O" horiz-adv-x="775" 
d="M699 324q15 -3 24 -16t6 -30q-12 -64 -43 -118t-76 -93.5t-101 -61.5t-117 -22q-60 0 -115.5 22t-100.5 61t-76.5 93t-43.5 118q-3 16 6 29.5t24 16.5q17 2 30 -6.5t16 -24.5q10 -50 34 -92.5t58.5 -73.5t77.5 -48.5t90 -17.5t90.5 17.5t78 48.5t59 73.5t33.5 93.5
q3 16 16 25t30 6zM393 733q66 0 124.5 -25t104 -69t75 -104t37.5 -130q2 -17 -8.5 -29t-25.5 -14h-4q-15 0 -26 10t-13 24q-6 55 -29 103t-58 82.5t-80.5 54.5t-96.5 20t-96.5 -20t-81 -54.5t-58.5 -82.5t-29 -103q-2 -15 -14 -25.5t-29 -8.5q-15 2 -25.5 14t-8.5 29
q7 70 37 130t75.5 104t104.5 69t125 25z" />
    <glyph glyph-name="P" unicode="P" horiz-adv-x="516" 
d="M436 496q15 -3 23.5 -15.5t5.5 -27.5q-11 -48 -35.5 -78.5t-56.5 -48.5t-67 -25t-65 -7q-22 0 -40 3q-15 2 -24 14.5t-7 27.5t14.5 24t27.5 7q1 0 13.5 -1t30.5 -0.5t39 5.5t40.5 15.5t35 29.5t22.5 49q3 15 16 23.5t27 4.5zM207 653h-75v-616q0 -16 -10.5 -26.5
t-25.5 -10.5t-25.5 10.5t-10.5 26.5v650q0 15 11 26.5t26 11.5h109q4 0 22.5 -0.5t44 -4.5t55.5 -12.5t56.5 -25.5t47.5 -43t30 -65q3 -15 -5 -27.5t-23 -16.5q-15 -3 -28 5t-16 23q-6 24 -21 40.5t-35.5 27t-42 16t-40 8t-31 2.5h-12.5z" />
    <glyph glyph-name="Q" unicode="Q" horiz-adv-x="823" 
d="M705 362q-14 0 -25 9.5t-13 23.5q-5 54 -27.5 99.5t-57 79.5t-78.5 53t-93 19t-93 -19t-78.5 -53t-56.5 -79.5t-28 -99.5q-2 -15 -13.5 -25t-27.5 -8q-15 2 -25 14t-8 27q7 68 35.5 126t73 101t101.5 67t120 24q64 0 121 -24t101 -67t73 -101t36 -126q2 -15 -8 -27
t-26 -14h-3zM733 29l-81 78q32 35 53.5 79.5t31.5 95.5q3 15 -6 28t-24 15q-15 3 -27.5 -5.5t-15.5 -23.5q-9 -49 -32.5 -90.5t-57.5 -71.5t-75.5 -47t-87.5 -17q-45 0 -86.5 16.5t-75.5 46.5t-57.5 71.5t-32.5 90.5q-3 15 -15.5 23.5t-28.5 5.5q-15 -3 -23.5 -15.5
t-5.5 -28.5q12 -62 42.5 -114t73.5 -90t96.5 -59.5t112.5 -21.5q55 0 105 18.5t92 51.5l83 -80q10 -8 21 -8q13 0 22 9t8.5 22t-9.5 21zM506 164q12 -10 24 -10q14 0 25 11q10 10 10 24t-11 25l-32 32q-11 10 -25 10t-24 -11q-10 -10 -10 -24t10 -25z" />
    <glyph glyph-name="R" unicode="R" horiz-adv-x="615" 
d="M524 495q-6 -88 -67 -139q-33 -27 -73 -38.5t-75 -14.5t-59.5 -0.5t-26.5 2.5q-16 2 -25 14.5t-7 26.5q2 16 14.5 25t27.5 7l19 -1.5t46.5 0t58 9.5t53.5 28q35 28 40 86q4 73 -29 110q-12 13 -29 20t-33.5 10.5t-32 4t-24.5 0.5h-148v-605q0 -15 -11 -26t-25 -11
q-16 0 -27 11t-11 26v642q0 16 11 26.5t27 10.5h184q12 0 32.5 -1t45 -6.5t50 -17.5t46.5 -34q54 -57 48 -165zM550 55q8 -14 3.5 -28t-18.5 -22q-8 -5 -18 -5q-21 0 -32 19l-120 218q-8 13 -3.5 27.5t18.5 22.5t28 3.5t22 -18.5z" />
    <glyph glyph-name="S" unicode="S" horiz-adv-x="592" 
d="M358 387q25 -11 52.5 -27t50 -41t37 -60.5t13.5 -84.5q-1 -45 -20 -78.5t-49 -56t-67.5 -34t-76.5 -11.5h-7q-45 1 -82 16.5t-64 40t-43.5 55t-20.5 61.5q-2 17 8 30t27 15q16 1 27 -9t13 -25q1 -19 11.5 -38t28.5 -34.5t42.5 -25.5t54.5 -11q25 -1 50.5 5t45.5 19
t33 33.5t14 49.5q1 51 -23 83t-82 58q-14 6 -21 20t-2 28q6 16 21 22t29 0zM219 367q-75 41 -107.5 100t-15.5 123q8 31 26.5 56t44.5 43t58 28t67 9q58 -2 95.5 -17.5t59.5 -37t32 -44t13 -37.5t-5.5 -28t-24.5 -16q-15 -3 -28 5.5t-16 23.5q-15 73 -128 76h-4
q-42 0 -75 -22.5t-43 -57.5q-10 -38 12.5 -74t74.5 -64q14 -8 18.5 -22.5t-3.5 -28.5q-11 -20 -33 -20q-8 0 -18 5z" />
    <glyph glyph-name="T" unicode="T" horiz-adv-x="674" 
d="M337 611q16 0 27 -11.5t11 -27.5v-534q0 -16 -11 -27t-27 -11t-27 11t-11 27v534q0 16 11 27.5t27 11.5zM556 726q16 0 27 -11t11 -27q0 -17 -11 -28t-27 -11h-438q-16 0 -27 11t-11 28q0 16 11 27t27 11h438z" />
    <glyph glyph-name="U" unicode="U" horiz-adv-x="697" 
d="M579 720q16 0 27 -11t11 -27v-436q0 -97 -53 -163t-150 -92q-3 -1 -9 -1q-13 0 -23 7.5t-14 20.5q-4 15 4 28t23 18q25 6 51 18.5t47.5 34t35 53t13.5 76.5v436q0 16 11 27t26 11zM292 63q15 -4 23 -17.5t4 -28.5q-3 -12 -13 -20t-23 -8q-2 0 -10 2q-27 7 -60.5 22.5
t-63 44.5t-49.5 75t-20 113v436q0 16 11 27t26 11q16 0 27 -11t11 -27v-436q0 -147 137 -183z" />
    <glyph glyph-name="V" unicode="V" horiz-adv-x="850" 
d="M474 47q7 -14 1.5 -28.5t-19.5 -21.5q-7 -4 -16 -4q-23 0 -34 21l-321 656q-8 14 -2.5 28.5t19.5 21.5q14 8 28.5 2.5t21.5 -19.5zM740 723q14 -7 23.5 -21.5t3.5 -28.5l-234 -526q-12 -23 -35 -23q-8 0 -15 4q-14 6 -19.5 20.5t0.5 28.5l234 527q6 14 17 19.5t25 -0.5z
" />
    <glyph glyph-name="W" unicode="W" horiz-adv-x="1117" 
d="M100 694l316 -644q7 -14 2 -28t-19 -21q-7 -4 -16 -4q-23 0 -33 21l-316 644q-7 14 -2 28t19 21t28 2t21 -19zM685 713q14 -6 19.5 -20t-0.5 -28l-230 -517q-5 -11 -14 -16.5t-20 -5.5q-8 0 -15 3q-14 6 -19.5 20.5t0.5 28.5l230 517q6 14 20.5 19.5t28.5 -1.5zM1073 665
l-135 -303l-51.5 -115l-46.5 -104.5l-35.5 -80t-18.5 -42.5q-2 -2 -2 -4q-10 -19 -32 -19q-23 0 -33 21l-134 273q-7 14 -2 28t19 21t28 2t21 -19l99 -202l255 574q7 14 21 19.5t28 -1.5q14 -6 19.5 -20t-0.5 -28z" />
    <glyph glyph-name="X" unicode="X" horiz-adv-x="715" 
d="M624 57q9 -12 6.5 -27t-14.5 -24q-11 -8 -22 -8q-18 0 -30 15l-477 649q-9 13 -6.5 28t14.5 24q13 9 28 7t24 -15zM313 303q13 -9 15.5 -24.5t-7.5 -27.5l-174 -238q-12 -15 -30 -15q-11 0 -22 8q-12 9 -14.5 24t6.5 27l174 238q10 12 25 14.5t27 -6.5zM620 710
q12 -9 14.5 -24t-7.5 -27l-174 -238q-11 -15 -30 -15q-12 0 -22 7q-12 9 -14.5 24.5t6.5 27.5l175 238q9 12 24 14.5t28 -7.5z" />
    <glyph glyph-name="Y" unicode="Y" horiz-adv-x="711" 
d="M608 718q14 -6 20 -20.5t-1 -28.5l-292 -657q-5 -11 -14 -16.5t-20 -5.5q-8 0 -15 3q-14 6 -20 20.5t1 28.5l292 657q6 14 20.5 19.5t28.5 -0.5zM332 351q-8 0 -16.5 3.5t-13.5 11.5l-215 296q-9 13 -6.5 28t14.5 24q13 9 28 7t25 -15l215 -296q9 -13 6.5 -28t-15.5 -24
q-8 -7 -22 -7z" />
    <glyph glyph-name="Z" unicode="Z" horiz-adv-x="632" 
d="M513 73q17 0 28 -10t11 -27q0 -16 -11 -26t-28 -10h-375q-22 0 -34 20q-10 18 0 38l165 285q8 14 23 18t29 -4t18 -24t-4 -30l-131 -230h309zM118 653q-16 0 -27 10t-11 26q0 17 11 27t27 10h395q23 0 34 -19q10 -20 -1 -38l-157 -265q-11 -19 -33 -19q-10 0 -19 6
q-14 8 -18 23.5t4 29.5l123 209h-328z" />
    <glyph glyph-name="zero" unicode="0" horiz-adv-x="716" 
d="M648 319q17 -3 25.5 -16.5t4.5 -29.5q-13 -63 -44 -115.5t-74.5 -90t-97.5 -58t-112 -19.5t-111 23.5t-95 61.5t-71 92t-40 116q-2 17 7 30t25 16t29 -6.5t15 -26.5q8 -48 30.5 -89.5t54.5 -71.5t72.5 -47.5t84.5 -18.5q45 -1 86 15t74.5 45.5t57 70t33.5 89.5
q4 16 17 25t29 5zM364 721q63 -1 119 -26.5t99 -69t70 -102.5t33 -128q1 -13 -9 -29q-9 -12 -26 -14h-4q-15 1 -25.5 11t-12.5 26q-5 53 -26 99t-54 80t-75.5 53.5t-90.5 20.5t-91 -17t-77 -51t-57 -78t-29 -98q-3 -18 -15 -27q-11 -9 -24 -8q-3 0 -4 1q-17 0 -26 14
q-11 13 -8 29q8 68 37.5 126t74.5 100t101.5 65.5t119.5 22.5zM291 370q0 1 -0.5 1.5t-0.5 1.5l-78 118q-9 14 -5.5 31t18.5 27q14 9 30.5 5.5t26.5 -17.5l82 -127l130 -195q13 -20 2 -42q-4 -9 -14 -15q-14 -10 -31 -6.5t-26 18.5l-64 95q-2 1 -5 6l-60 92z" />
    <glyph glyph-name="one" unicode="1" horiz-adv-x="647" 
d="M322 131q-18 0 -30.5 13t-12.5 31v454h-122q-19 0 -31.5 13t-12.5 31t12.5 31t31.5 13h165q19 0 31.5 -13t12.5 -32v-497q0 -18 -12.5 -31t-31.5 -13zM523 0h-419q-18 0 -31 12.5t-13 30.5q0 19 13 31.5t31 12.5h419q18 0 31 -12.5t13 -31.5q0 -18 -13 -30.5t-31 -12.5z
" />
    <glyph glyph-name="two" unicode="2" horiz-adv-x="596" 
d="M164 543q0 -20 -6 -30.5t-13 -15.5t-13.5 -6t-7.5 -1h-3q-17 0 -28.5 16.5t-11.5 33.5q-2 64 26.5 113.5t82.5 72.5q4 2 8 2h9q12 0 21.5 -5.5t14.5 -16.5q7 -16 1 -31.5t-22 -22.5q-21 -8 -39.5 -35t-18.5 -74zM473 630q33 -72 24.5 -133t-40.5 -112t-78 -93.5
t-89 -78.5l-21.5 -18.5l-24.5 -21.5l-23.5 -21.5t-18.5 -17.5q-15 -12 -31 -12q-20 0 -33 15q-14 12 -12 32q0 20 15 32l19.5 17.5l24.5 22l25 22.5t22 19q49 41 88 77.5t61.5 73.5t26.5 76t-16 84q-17 36 -66 49q-17 5 -26.5 21.5t-4.5 34.5q4 14 16 23.5t27 9.5q4 0 12 -2
q44 -11 75.5 -37t47.5 -62zM489 0h-357q-20 0 -33.5 13t-13.5 31q0 19 13.5 32t33.5 13h357q20 0 33.5 -13t13.5 -32q0 -18 -13.5 -31t-33.5 -13z" />
    <glyph glyph-name="three" unicode="3" horiz-adv-x="668" 
d="M508 445q66 -54 89 -125t-3 -144q-14 -39 -39.5 -72t-58.5 -56.5t-71.5 -37t-78.5 -13.5q-69 0 -118 19t-80 42t-46 42.5t-16 21.5q-9 14 -4.5 31t18.5 26q15 8 31.5 4t25.5 -18q1 -2 12 -15t33.5 -29t58 -28.5t85.5 -12.5q27 0 53.5 9t49 25.5t40 39.5t26.5 50
q5 14 8 34t-1.5 43.5t-19.5 49t-46 50.5q-14 11 -15.5 27.5t9.5 30.5t27.5 15.5t30.5 -9.5zM162 640q-17 0 -29 12.5t-12 29.5t12 29t29 12h369q9 2 17 0q17 -2 28 -13.5t11 -27.5q0 -7 -4 -17q-1 -6 -7 -14l-181 -229q-11 -15 -30 -17.5t-34 8.5t-17.5 30t8.5 34l129 163
h-289z" />
    <glyph glyph-name="four" unicode="4" horiz-adv-x="708" 
d="M444 706q14 -9 17 -25.5t-7 -30.5l-275 -387h185q17 0 29 -13t12 -30t-12 -32t-29 -16l-263 -2q-12 0 -21.5 8t-15.5 19q-5 9 -4 21.5t7 22.5l321 455q10 14 26 17t30 -7zM601 268q20 0 33.5 -14.5t13.5 -34.5q0 -19 -13.5 -34t-33.5 -15h-58l-2 -137q0 -17 -11.5 -29
t-28.5 -12t-29 13t-12 30l1 472q0 17 12.5 27.5t29.5 10.5t29 -10t12 -27l-1 -240h58z" />
    <glyph glyph-name="five" unicode="5" horiz-adv-x="568" 
d="M142 429q0 -17 -12 -28.5t-29 -11.5t-29 11.5t-12 28.5v242q0 21 17 33q13 15 32 15h306q17 0 29 -11.5t12 -28.5t-12 -29t-29 -12h-273v-209zM267 461q50 0 94 -18.5t76.5 -50t51.5 -73.5t19 -90t-19 -90.5t-51.5 -74t-76 -49.5t-93.5 -18q-54 0 -101.5 22t-82.5 62
q-11 13 -10 29.5t14 27.5t29.5 10t27.5 -14q23 -27 55.5 -41.5t67.5 -14.5q33 0 62 12t51 32t34.5 47.5t12.5 59.5q0 31 -12.5 59t-34.5 48t-51.5 32t-62.5 12h-46q-17 0 -28.5 12t-11.5 29t11.5 28.5t28.5 11.5h46z" />
    <glyph glyph-name="six" unicode="6" horiz-adv-x="614" 
d="M553 257q3 -41 -6.5 -79.5t-30.5 -71.5t-51.5 -58t-68.5 -39q-8 -3 -15 -3q-12 0 -22.5 7t-15.5 20q-6 15 0.5 31t23.5 22q51 19 80 64.5t25 100.5q-5 51 -36.5 89.5t-79.5 52.5q-17 5 -24.5 20t-2.5 32q5 16 19.5 24t31.5 3q36 -11 66 -31.5t53 -49t37 -63t17 -71.5z
M270 80q16 -5 24 -20t3 -31q-4 -14 -14.5 -21.5t-23.5 -7.5q-4 0 -12 2q-37 10 -68.5 31.5t-55.5 50t-38.5 63t-17.5 71.5q-3 20 0 41l-6 251q-1 21 5 50.5t23 60t47 57t78 40.5q16 5 31 -3t20 -24q5 -17 -3 -31.5t-25 -19.5q-35 -11 -54 -31t-28 -40t-10.5 -36.5
t-1.5 -20.5l2 -95q37 36 85 52q17 5 32 -2t20 -23q6 -17 -1.5 -32t-23.5 -21q-45 -15 -74.5 -52t-34.5 -85q-2 -15 0 -29q4 -50 37.5 -90t84.5 -55zM429 614q-22 16 -44.5 23t-39.5 10q-17 2 -26.5 16t-7.5 31q3 17 16 26.5t30 7.5q24 -4 55.5 -14t63.5 -33q14 -11 17 -27.5
t-7 -30.5q-13 -16 -34 -16q-13 0 -23 7z" />
    <glyph glyph-name="seven" unicode="7" horiz-adv-x="519" 
d="M296 641h-226q-17 0 -28.5 11.5t-11.5 28.5t11.5 29t28.5 12h226q17 0 28.5 -12t11.5 -29t-11.5 -28.5t-28.5 -11.5zM183 0q-6 0 -13 3q-15 5 -22 19.5t-1 30.5l235 643q6 16 20.5 22.5t30.5 1.5q15 -6 21.5 -20.5t1.5 -30.5l-236 -643q-5 -12 -15 -19t-22 -7z" />
    <glyph glyph-name="eight" unicode="8" horiz-adv-x="628" 
d="M306 454q46 0 89.5 -17t77.5 -47.5t54.5 -74t20.5 -95.5q0 -48 -18.5 -91t-50 -74.5t-74.5 -50t-91 -18.5q-49 0 -91.5 18.5t-74 50t-50 74.5t-18.5 91q0 41 13.5 79t39.5 70q11 13 27.5 14.5t29.5 -9.5q12 -11 14 -27t-9 -30q-17 -20 -26 -45t-9 -52q0 -32 12 -60
t33 -48.5t49 -32.5t60 -12q31 0 59 12t49 32.5t33 48.5t12 60t-12 60t-33 49t-49 33t-59 12h-5h-4q-37 0 -68.5 13.5t-54.5 37t-36.5 56t-13.5 71.5q0 37 14.5 70t39 57.5t57.5 38.5t70 14h1q37 0 69.5 -12.5t58.5 -38.5q54 -54 54 -128q0 -18 -4 -35.5t-10 -34.5
q-7 -15 -22 -21t-31 0q-15 6 -22 22t1 30q7 18 7 39q0 43 -29 70q-29 29 -72 29q-21 0 -39.5 -8t-32 -21.5t-21.5 -31.5t-8 -39q0 -45 25 -71.5t67 -26.5h1v0z" />
    <glyph glyph-name="nine" unicode="9" horiz-adv-x="656" 
d="M255 257q-36 11 -66.5 32t-53.5 49.5t-37 62.5t-17 71q-3 41 7 80t31 72t52 58.5t69 39.5q15 6 30.5 -1t21.5 -24q6 -15 -1 -30t-23 -22q-26 -9 -46.5 -26t-34 -39t-20 -48t-4.5 -53q5 -51 36.5 -90t80.5 -53q16 -5 23.5 -20t3.5 -31q-5 -13 -15.5 -21.5t-24.5 -8.5
q-8 0 -12 2zM290 80q16 -2 26.5 -15.5t7.5 -29.5q-3 -17 -14 -26t-27 -9h-5q-24 4 -56 14t-63 33q-14 10 -17 26.5t6 30.5q11 14 27.5 16.5t29.5 -6.5q23 -15 45.5 -23t39.5 -11zM575 218q1 -21 -5 -50.5t-23 -60t-47 -57.5t-78 -41q-4 -1 -12 -1q-13 0 -24.5 7.5
t-15.5 21.5q-5 17 3 31t25 19q36 11 55 31.5t28 40.5t10.5 36.5t1.5 20.5l-2 95q-18 -17 -39.5 -29.5t-46.5 -20.5q-3 -2 -6.5 -2h-5.5q-30 0 -40 27q-5 16 2 31t23 21q46 15 75.5 52t34.5 85q0 8 0.5 15t-0.5 15q-2 25 -12 48t-26.5 42t-37.5 33.5t-46 21.5
q-17 6 -24.5 20.5t-2.5 30.5q4 17 18.5 25t31.5 3q37 -11 69 -32.5t56 -50t38.5 -63t17.5 -71.5q1 -20 0 -42z" />
    <glyph glyph-name="Ntilde" unicode="&#xd1;" horiz-adv-x="641" 
d="M561 679q0 15 -11 26t-25 11q-15 0 -25.5 -11t-10.5 -26v-523l-107 172q-7 14 -21 18t-28 -4q-13 -7 -17.5 -21t3.5 -28l174 -281q5 -9 13.5 -13.5t18.5 -4.5q9 0 17 4q10 5 14.5 14.5t3.5 19.5q1 1 1 3v644zM322 417l-174 281q-8 14 -22 18t-27 -4q-19 -10 -19 -32v-645
q0 -15 10.5 -25.5t25.5 -10.5t25.5 10.5t10.5 25.5v519l106 -171q11 -19 32 -19q10 0 17 4q14 8 18 22t-3 27zM140 786q-10 0 -19 6q-11 8 -12.5 20.5t6.5 23.5l10 10.5t27 21t45.5 21t63.5 9.5q22 0 43.5 -7.5t41.5 -16.5l38.5 -15.5t36.5 -7.5q14 0 25.5 5t19.5 11.5
t13 12l5 5.5q8 11 20 13t23 -6t13 -20t-6 -23q-1 -1 -9 -10.5t-22 -20.5t-34.5 -20t-46.5 -9h-2q-27 1 -51.5 9.5t-46.5 18.5q-17 8 -33 13.5t-28 5.5q-25 0 -43 -6t-30 -13t-18 -13l-6 -6q-9 -12 -24 -12z" />
    <glyph glyph-name="B" unicode="B" horiz-adv-x="611" 
d="M398 620q-13 13 -29.5 20t-33 10.5t-31.5 4t-24 0.5h-147v-610q0 -23 -10.5 -33t-25.5 -10q-16 0 -26.5 10t-10.5 33v647q0 15 10.5 25.5t26.5 10.5h183q12 0 32 -1t44 -6.5t49 -17t46 -33.5q54 -57 48 -163q-2 -44 -19 -72.5t-47 -53.5q-33 -27 -72.5 -38.5t-74 -14.5
t-59 -0.5t-26.5 2.5q-15 2 -24 14.5t-7 27.5t14 24t27 7l19 -1.5t46 0.5t57 9.5t53 26.5q19 15 28.5 30t11.5 43q4 73 -28 109zM474 360q13 -9 26.5 -23.5t25 -34t18.5 -46t7 -59.5q0 -44 -15 -80t-42.5 -62t-65.5 -40.5t-83 -14.5h-143q-15 0 -25.5 10.5t-10.5 25.5
t10.5 25.5t25.5 10.5h143q23 0 47 6.5t43.5 21.5t31.5 38.5t12 58.5q0 71 -46 105q-12 8 -14.5 23t6.5 27q8 12 22.5 14.5t26.5 -6.5z" />
    <glyph glyph-name="at" unicode="@" 
 />
    <glyph glyph-name="A" unicode="A" horiz-adv-x="727" 
d="M683 52q6 -14 0.5 -28t-19.5 -21q-8 -3 -15 -3q-11 0 -20 5.5t-14 16.5l-293 659q-6 14 -1 28.5t19 20.5q14 7 28.5 1.5t20.5 -19.5zM385 327q16 0 26.5 -10.5t10.5 -25.5q0 -16 -11 -26.5t-26 -10.5l-179 1h-7l-89 -232q-4 -11 -13 -17t-20 -6q-5 0 -13 2q-14 6 -20 20
t-1 28l210 547q6 14 19.5 20t27.5 1t20 -19t0 -28l-93 -243z" />
    <glyph glyph-name="C" unicode="C" horiz-adv-x="741" 
d="M665 173q12 -8 15 -23t-5 -27q-44 -65 -111 -99t-150 -34q-78 0 -139 27.5t-105.5 71t-71.5 98.5t-36 111q-2 14 6.5 26t22.5 14q16 3 28 -5.5t14 -22.5q7 -47 29 -91.5t57 -79t84 -56t111 -21.5q65 0 117 25.5t84 75.5q8 13 23 15.5t27 -5.5zM92 372q-14 2 -23.5 13.5
t-7.5 25.5q8 73 42 134t85 103.5t115.5 63.5t134.5 14q97 -9 172 -72q11 -9 12.5 -23.5t-7.5 -25.5q-10 -11 -24.5 -13t-25.5 8q-60 47 -134 55q-56 6 -107 -10.5t-91.5 -51t-67 -83.5t-33.5 -107q-2 -14 -12 -22.5t-24 -8.5h-4z" />
    <glyph glyph-name="endash" unicode="&#x2013;" 
d="M437 234h-226q-17 0 -28.5 12t-11.5 29t11.5 28.5t28.5 11.5h226q17 0 28.5 -11.5t11.5 -28.5t-11.5 -29t-28.5 -12z" />
    <glyph glyph-name="emdash" unicode="&#x2014;" 
d="M432 237h-226q-17 0 -28.5 12t-11.5 29t11.5 28.5t28.5 11.5h226q17 0 28.5 -11.5t11.5 -28.5t-11.5 -29t-28.5 -12z" />
    <glyph glyph-name="hyphen" unicode="-" horiz-adv-x="332" 
d="M292 278h-252q-17 0 -28.5 12t-11.5 29t11.5 28.5t28.5 11.5h252q17 0 28.5 -11.5t11.5 -28.5t-11.5 -29t-28.5 -12z" />
    <glyph glyph-name="E" unicode="E" horiz-adv-x="547" 
d="M440 74q15 0 26 -10.5t11 -26.5q0 -15 -11 -26t-26 -11h-309q-17 0 -28 13q-11 4 -17 13.5t-6 20.5v528q0 16 11 26.5t26 10.5q16 0 26.5 -10.5t10.5 -26.5v-501h286zM440 721q15 0 26 -11t11 -28q0 -16 -11 -27t-26 -11h-323q-15 0 -26 11t-11 27q0 17 11 28t26 11h323z
M232 314q-15 0 -26 11t-11 27q0 15 11 26t26 11h135q17 0 28.5 -11t11.5 -26q0 -16 -11.5 -27t-28.5 -11h-135z" />
    <glyph glyph-name="F" unicode="F" horiz-adv-x="522" 
d="M117 614q16 0 26.5 -11t10.5 -26v-540q0 -15 -10.5 -26t-26.5 -11q-15 0 -26 11t-11 26v540q0 15 11 26t26 11zM434 720q16 0 27 -10.5t11 -26.5t-11 -26.5t-27 -10.5h-317q-15 0 -26 10.5t-11 26.5t11 26.5t26 10.5h317zM365 394q14 0 25 -11t11 -27t-11 -26.5
t-25 -10.5h-135q-16 0 -27 10.5t-11 26.5t11 27t27 11h135z" />
    <glyph glyph-name="D" unicode="D" horiz-adv-x="625" 
d="M532 353q15 -2 24.5 -13.5t7.5 -26.5q-7 -62 -30.5 -109.5t-57 -82.5t-75.5 -58t-85.5 -37t-87 -20t-80.5 -6h-18t-17 1q-14 2 -23.5 12t-9.5 24v284q0 15 10 25.5t25 10.5q14 0 24 -10.5t10 -25.5v-249q20 0 51.5 3t67.5 12.5t73 26t68.5 44.5t53.5 68t29 96
q2 14 14 23.5t26 7.5zM115 381q-15 0 -25 10.5t-10 24.5v276q0 14 9.5 24t23.5 12q35 2 80 -1t92 -14.5t93.5 -33.5t85 -56.5t65 -83.5t35.5 -115q2 -15 -7.5 -26.5t-23.5 -13.5q-15 -2 -27 7t-14 24q-7 54 -30 93.5t-54 66t-68 43t-73 25t-67 11.5t-51 3v-241
q0 -14 -10 -24.5t-24 -10.5z" />
    <glyph glyph-name="G" unicode="G" horiz-adv-x="803" 
d="M686 371q16 0 26.5 -11t10.5 -27q0 -78 -23 -142t-65 -109.5t-101 -71t-131 -25.5q-77 0 -137.5 27.5t-105 71t-71.5 98.5t-37 111q-2 15 7 27t24 15t27.5 -6t14.5 -24q8 -46 29.5 -90t56 -78.5t82.5 -55.5t110 -21q56 0 101.5 19.5t78 55t50 86t17.5 112.5q0 16 10.5 27
t25.5 11zM84 371q-16 2 -25.5 13.5t-7.5 27.5q8 72 42 133t85 104t115.5 64t133.5 13q48 -5 91.5 -23t80.5 -48q12 -10 13.5 -25.5t-8.5 -26.5q-9 -12 -24.5 -13.5t-27.5 7.5q-29 24 -62.5 38t-69.5 18q-54 6 -104.5 -11t-91 -51t-67 -82t-33.5 -105q-2 -15 -12 -24t-24 -9
h-4zM566 371q17 0 28 -11t11 -27q0 -15 -11 -25.5t-28 -10.5h-140q-17 0 -27.5 10.5t-10.5 25.5q0 16 10.5 27t27.5 11h140z" />
    <glyph glyph-name="a" unicode="a" horiz-adv-x="727" 
d="M683 52q6 -14 0.5 -28t-19.5 -21q-8 -3 -15 -3q-11 0 -20 5.5t-14 16.5l-293 659q-6 14 -1 28.5t19 20.5q14 7 28.5 1.5t20.5 -19.5zM385 327q16 0 26.5 -10.5t10.5 -25.5q0 -16 -11 -26.5t-26 -10.5l-179 1h-7l-89 -232q-4 -11 -13 -17t-20 -6q-5 0 -13 2q-14 6 -20 20
t-1 28l210 547q6 14 19.5 20t27.5 1t20 -19t0 -28l-93 -243z" />
    <glyph glyph-name="b.001" 
 />
    <glyph glyph-name="b" unicode="b" horiz-adv-x="611" 
d="M398 620q-13 13 -29.5 20t-33 10.5t-31.5 4t-24 0.5h-147v-610q0 -23 -10.5 -33t-25.5 -10q-16 0 -26.5 10t-10.5 33v647q0 15 10.5 25.5t26.5 10.5h183q12 0 32 -1t44 -6.5t49 -17t46 -33.5q54 -57 48 -163q-2 -44 -19 -72.5t-47 -53.5q-33 -27 -72.5 -38.5t-74 -14.5
t-59 -0.5t-26.5 2.5q-15 2 -24 14.5t-7 27.5t14 24t27 7l19 -1.5t46 0.5t57 9.5t53 26.5q19 15 28.5 30t11.5 43q4 73 -28 109zM474 360q13 -9 26.5 -23.5t25 -34t18.5 -46t7 -59.5q0 -44 -15 -80t-42.5 -62t-65.5 -40.5t-83 -14.5h-143q-15 0 -25.5 10.5t-10.5 25.5
t10.5 25.5t25.5 10.5h143q23 0 47 6.5t43.5 21.5t31.5 38.5t12 58.5q0 71 -46 105q-12 8 -14.5 23t6.5 27q8 12 22.5 14.5t26.5 -6.5z" />
    <glyph glyph-name="c" unicode="c" horiz-adv-x="741" 
d="M665 173q12 -8 15 -23t-5 -27q-44 -65 -111 -99t-150 -34q-78 0 -139 27.5t-105.5 71t-71.5 98.5t-36 111q-2 14 6.5 26t22.5 14q16 3 28 -5.5t14 -22.5q7 -47 29 -91.5t57 -79t84 -56t111 -21.5q65 0 117 25.5t84 75.5q8 13 23 15.5t27 -5.5zM92 372q-14 2 -23.5 13.5
t-7.5 25.5q8 73 42 134t85 103.5t115.5 63.5t134.5 14q97 -9 172 -72q11 -9 12.5 -23.5t-7.5 -25.5q-10 -11 -24.5 -13t-25.5 8q-60 47 -134 55q-56 6 -107 -10.5t-91.5 -51t-67 -83.5t-33.5 -107q-2 -14 -12 -22.5t-24 -8.5h-4z" />
    <glyph glyph-name="d" unicode="d" horiz-adv-x="625" 
d="M532 353q15 -2 24.5 -13.5t7.5 -26.5q-7 -62 -30.5 -109.5t-57 -82.5t-75.5 -58t-85.5 -37t-87 -20t-80.5 -6h-18t-17 1q-14 2 -23.5 12t-9.5 24v284q0 15 10 25.5t25 10.5q14 0 24 -10.5t10 -25.5v-249q20 0 51.5 3t67.5 12.5t73 26t68.5 44.5t53.5 68t29 96
q2 14 14 23.5t26 7.5zM115 381q-15 0 -25 10.5t-10 24.5v276q0 14 9.5 24t23.5 12q35 2 80 -1t92 -14.5t93.5 -33.5t85 -56.5t65 -83.5t35.5 -115q2 -15 -7.5 -26.5t-23.5 -13.5q-15 -2 -27 7t-14 24q-7 54 -30 93.5t-54 66t-68 43t-73 25t-67 11.5t-51 3v-241
q0 -14 -10 -24.5t-24 -10.5z" />
    <glyph glyph-name="e" unicode="e" horiz-adv-x="547" 
d="M440 74q15 0 26 -10.5t11 -26.5q0 -15 -11 -26t-26 -11h-309q-17 0 -28 13q-11 4 -17 13.5t-6 20.5v528q0 16 11 26.5t26 10.5q16 0 26.5 -10.5t10.5 -26.5v-501h286zM440 721q15 0 26 -11t11 -28q0 -16 -11 -27t-26 -11h-323q-15 0 -26 11t-11 27q0 17 11 28t26 11h323z
M232 314q-15 0 -26 11t-11 27q0 15 11 26t26 11h135q17 0 28.5 -11t11.5 -26q0 -16 -11.5 -27t-28.5 -11h-135z" />
    <glyph glyph-name="f" unicode="f" horiz-adv-x="522" 
d="M117 614q16 0 26.5 -11t10.5 -26v-540q0 -15 -10.5 -26t-26.5 -11q-15 0 -26 11t-11 26v540q0 15 11 26t26 11zM434 720q16 0 27 -10.5t11 -26.5t-11 -26.5t-27 -10.5h-317q-15 0 -26 10.5t-11 26.5t11 26.5t26 10.5h317zM365 394q14 0 25 -11t11 -27t-11 -26.5
t-25 -10.5h-135q-16 0 -27 10.5t-11 26.5t11 27t27 11h135z" />
    <glyph glyph-name="g" unicode="g" horiz-adv-x="803" 
d="M686 371q16 0 26.5 -11t10.5 -27q0 -78 -23 -142t-65 -109.5t-101 -71t-131 -25.5q-77 0 -137.5 27.5t-105 71t-71.5 98.5t-37 111q-2 15 7 27t24 15t27.5 -6t14.5 -24q8 -46 29.5 -90t56 -78.5t82.5 -55.5t110 -21q56 0 101.5 19.5t78 55t50 86t17.5 112.5q0 16 10.5 27
t25.5 11zM84 371q-16 2 -25.5 13.5t-7.5 27.5q8 72 42 133t85 104t115.5 64t133.5 13q48 -5 91.5 -23t80.5 -48q12 -10 13.5 -25.5t-8.5 -26.5q-9 -12 -24.5 -13.5t-27.5 7.5q-29 24 -62.5 38t-69.5 18q-54 6 -104.5 -11t-91 -51t-67 -82t-33.5 -105q-2 -15 -12 -24t-24 -9
h-4zM566 371q17 0 28 -11t11 -27q0 -15 -11 -25.5t-28 -10.5h-140q-17 0 -27.5 10.5t-10.5 25.5q0 16 10.5 27t27.5 11h140z" />
    <glyph glyph-name="h" unicode="h" horiz-adv-x="653" 
d="M545 723q16 0 27 -11t11 -27v-644q0 -16 -11 -27t-27 -11t-27 11t-11 27v644q0 16 11 27t27 11zM108 720q16 0 27 -11t11 -27v-644q0 -16 -11 -27t-27 -11t-27 11t-11 27v644q0 16 11 27t27 11zM451 398q16 0 27 -11t11 -27t-11 -27t-27 -11h-249q-16 0 -27 11t-11 27
t11 27t27 11h249z" />
    <glyph glyph-name="i" unicode="i" horiz-adv-x="520" 
d="M412 76q16 0 27 -11t11 -27t-11 -27t-27 -11h-304q-16 0 -27 11t-11 27t11 27t27 11h114v493q0 16 11 27t27 11t27 -11t11 -27v-493h114zM412 723q16 0 27 -11t11 -27t-11 -27t-27 -11h-304q-16 0 -27 11t-11 27t11 27t27 11h304z" />
    <glyph glyph-name="j" unicode="j" horiz-adv-x="578" 
d="M377 618q14 0 24 -10t10 -24v-262q0 -3 -1 -5v-122q0 -20 -5 -48.5t-19.5 -57t-39.5 -52.5t-64 -35q-3 -1 -9 -1q-11 0 -20.5 7t-12.5 18q-4 14 3 26t21 16q30 8 45.5 28.5t22.5 42t8 38.5l1 17l1 260q0 5 1 7v123q0 14 10 24t24 10zM514 722q14 0 24 -10t10 -24t-10 -24
t-24 -10h-274q-14 0 -24 10t-10 24t10 24t24 10h274zM186 68q14 -4 21.5 -16t3.5 -26q-3 -12 -12.5 -19t-20.5 -7q-6 0 -9 1q-39 10 -63 33t-37 50.5t-16.5 55.5t-1.5 48q1 14 12 23.5t25 8.5q14 -2 23.5 -13t7.5 -25v-16.5t6 -35t20 -37.5t41 -25z" />
    <glyph glyph-name="k" unicode="k" horiz-adv-x="619" 
d="M143 269q0 -2 -2 -2v-230q0 -15 -10 -26t-25 -11q-16 0 -26 11t-10 26v654q0 16 10 26.5t26 10.5q15 0 25 -10.5t10 -26.5v-312l292 332q11 11 26 12.5t26 -8.5q12 -11 13 -26t-9 -27zM549 62q11 -11 10 -26t-12 -26q-11 -10 -26 -10t-27 12l-255 277q-11 11 -10 26
t12 26t26 10t26 -12z" />
    <glyph glyph-name="l" unicode="l" horiz-adv-x="528" 
d="M412 73q15 0 25.5 -10.5t10.5 -25.5q0 -16 -10.5 -26.5t-25.5 -10.5h-295q-16 0 -26.5 10.5t-10.5 26.5q0 15 10.5 25.5t26.5 10.5h295zM117 105q-16 0 -26.5 11t-10.5 26v550q0 16 10.5 26.5t26.5 10.5q15 0 25.5 -10.5t10.5 -26.5v-550q0 -15 -10.5 -26t-25.5 -11z" />
    <glyph glyph-name="m" unicode="m" horiz-adv-x="776" 
d="M427 330q9 -12 7 -26.5t-15 -23.5q-10 -8 -20 -8q-20 0 -30 15l-216 289l3 -533q0 -14 -10 -25t-26 -11q-14 0 -24.5 10.5t-11.5 25.5l-4 639q0 4 1 6q-5 21 14 35q11 9 26 6.5t24 -14.5zM696 47q0 -15 -10.5 -25.5t-24.5 -10.5q-16 -1 -26.5 10t-10.5 25l-4 535
l-140 -202q-11 -15 -29 -15q-13 0 -21 7q-13 8 -15 22t6 26l204 297q0 1 0.5 1t0.5 1v1q1 0 1 0.5t1 0.5l3 3q0 2 2 2l3 3q1 0 1.5 0.5t1.5 0.5q2 2 4 2q1 0 1 0.5t1 0.5t2 0.5t3 0.5h3q1 0 1.5 0.5t1.5 0.5q2 0 3.5 -0.5t3.5 -0.5q7 -1 13 -6q16 -10 16 -29z" />
    <glyph glyph-name="n" unicode="n" horiz-adv-x="648" 
d="M531 732q15 0 25.5 -10.5t10.5 -26.5v-653v-3q2 -22 -19 -35q-7 -4 -17 -4t-18.5 5t-13.5 14l-177 285q-7 14 -3 28t18 21q13 8 27.5 4t21.5 -18l108 -174v530q0 16 11 26.5t26 10.5zM325 429q8 -13 3.5 -27.5t-17.5 -21.5q-10 -5 -18 -5q-21 0 -32 19l-108 174v-526
q0 -15 -10.5 -25.5t-26.5 -10.5q-15 0 -25.5 10.5t-10.5 25.5v654q0 22 19 33q14 8 28 3.5t22 -18.5z" />
    <glyph glyph-name="o" unicode="o" horiz-adv-x="775" 
d="M699 324q15 -3 24 -16t6 -30q-12 -64 -43 -118t-76 -93.5t-101 -61.5t-117 -22q-60 0 -115.5 22t-100.5 61t-76.5 93t-43.5 118q-3 16 6 29.5t24 16.5q17 2 30 -6.5t16 -24.5q10 -50 34 -92.5t58.5 -73.5t77.5 -48.5t90 -17.5t90.5 17.5t78 48.5t59 73.5t33.5 93.5
q3 16 16 25t30 6zM393 733q66 0 124.5 -25t104 -69t75 -104t37.5 -130q2 -17 -8.5 -29t-25.5 -14h-4q-15 0 -26 10t-13 24q-6 55 -29 103t-58 82.5t-80.5 54.5t-96.5 20t-96.5 -20t-81 -54.5t-58.5 -82.5t-29 -103q-2 -15 -14 -25.5t-29 -8.5q-15 2 -25.5 14t-8.5 29
q7 70 37 130t75.5 104t104.5 69t125 25z" />
    <glyph glyph-name="p" unicode="p" horiz-adv-x="566" 
d="M456 496q15 -3 23.5 -15.5t5.5 -27.5q-11 -48 -35.5 -78.5t-56.5 -48.5t-67 -25t-65 -7q-22 0 -40 3q-15 2 -24 14.5t-7 27.5t14.5 24t27.5 7q1 0 13.5 -1t30.5 -0.5t39 5.5t40.5 15.5t35 29.5t22.5 49q3 15 16 23.5t27 4.5zM227 653h-75v-616q0 -16 -10.5 -26.5
t-25.5 -10.5t-25.5 10.5t-10.5 26.5v650q0 15 11 26.5t26 11.5h109q4 0 22.5 -0.5t44 -4.5t55.5 -12.5t56.5 -25.5t47.5 -43t30 -65q3 -15 -5 -27.5t-23 -16.5q-15 -3 -28 5t-16 23q-6 24 -21 40.5t-35.5 27t-42 16t-40 8t-31 2.5h-12.5z" />
    <glyph glyph-name="q" unicode="q" horiz-adv-x="763" 
d="M675 362q-14 0 -25 9.5t-13 23.5q-5 54 -27.5 99.5t-57 79.5t-78.5 53t-93 19t-93 -19t-78.5 -53t-56.5 -79.5t-28 -99.5q-2 -15 -13.5 -25t-27.5 -8q-15 2 -25 14t-8 27q7 68 35.5 126t73 101t101.5 67t120 24q64 0 121 -24t101 -67t73 -101t36 -126q2 -15 -8 -27
t-26 -14h-3zM703 29l-81 78q32 35 53.5 79.5t31.5 95.5q3 15 -6 28t-24 15q-15 3 -27.5 -5.5t-15.5 -23.5q-9 -49 -32.5 -90.5t-57.5 -71.5t-75.5 -47t-87.5 -17q-45 0 -86.5 16.5t-75.5 46.5t-57.5 71.5t-32.5 90.5q-3 15 -15.5 23.5t-28.5 5.5q-15 -3 -23.5 -15.5
t-5.5 -28.5q12 -62 42.5 -114t73.5 -90t96.5 -59.5t112.5 -21.5q55 0 105 18.5t92 51.5l83 -80q10 -8 21 -8q13 0 22 9t8.5 22t-9.5 21zM476 164q12 -10 24 -10q14 0 25 11q10 10 10 24t-11 25l-32 32q-11 10 -25 10t-24 -11q-10 -10 -10 -24t10 -25z" />
    <glyph glyph-name="r" unicode="r" horiz-adv-x="625" 
d="M524 495q-6 -88 -67 -139q-33 -27 -73 -38.5t-75 -14.5t-59.5 -0.5t-26.5 2.5q-16 2 -25 14.5t-7 26.5q2 16 14.5 25t27.5 7l19 -1.5t46.5 0t58 9.5t53.5 28q35 28 40 86q4 73 -29 110q-12 13 -29 20t-33.5 10.5t-32 4t-24.5 0.5h-148v-605q0 -15 -11 -26t-25 -11
q-16 0 -27 11t-11 26v642q0 16 11 26.5t27 10.5h184q12 0 32.5 -1t45 -6.5t50 -17.5t46.5 -34q54 -57 48 -165zM550 55q8 -14 3.5 -28t-18.5 -22q-8 -5 -18 -5q-21 0 -32 19l-120 218q-8 13 -3.5 27.5t18.5 22.5t28 3.5t22 -18.5z" />
    <glyph glyph-name="s" unicode="s" horiz-adv-x="532" 
d="M328 387q25 -11 52.5 -27t50 -41t37 -60.5t13.5 -84.5q-1 -45 -20 -78.5t-49 -56t-67.5 -34t-76.5 -11.5h-7q-45 1 -82 16.5t-64 40t-43.5 55t-20.5 61.5q-2 17 8 30t27 15q16 1 27 -9t13 -25q1 -19 11.5 -38t28.5 -34.5t42.5 -25.5t54.5 -11q25 -1 50.5 5t45.5 19
t33 33.5t14 49.5q1 51 -23 83t-82 58q-14 6 -21 20t-2 28q6 16 21 22t29 0zM189 367q-75 41 -107.5 100t-15.5 123q8 31 26.5 56t44.5 43t58 28t67 9q58 -2 95.5 -17.5t59.5 -37t32 -44t13 -37.5t-5.5 -28t-24.5 -16q-15 -3 -28 5.5t-16 23.5q-15 73 -128 76h-4
q-42 0 -75 -22.5t-43 -57.5q-10 -38 12.5 -74t74.5 -64q14 -8 18.5 -22.5t-3.5 -28.5q-11 -20 -33 -20q-8 0 -18 5z" />
    <glyph glyph-name="t" unicode="t" horiz-adv-x="614" 
d="M307 611q16 0 27 -11.5t11 -27.5v-534q0 -16 -11 -27t-27 -11t-27 11t-11 27v534q0 16 11 27.5t27 11.5zM526 726q16 0 27 -11t11 -27q0 -17 -11 -28t-27 -11h-438q-16 0 -27 11t-11 28q0 16 11 27t27 11h438z" />
    <glyph glyph-name="u" unicode="u" horiz-adv-x="697" 
d="M579 720q16 0 27 -11t11 -27v-436q0 -97 -53 -163t-150 -92q-3 -1 -9 -1q-13 0 -23 7.5t-14 20.5q-4 15 4 28t23 18q25 6 51 18.5t47.5 34t35 53t13.5 76.5v436q0 16 11 27t26 11zM292 63q15 -4 23 -17.5t4 -28.5q-3 -12 -13 -20t-23 -8q-2 0 -10 2q-27 7 -60.5 22.5
t-63 44.5t-49.5 75t-20 113v436q0 16 11 27t26 11q16 0 27 -11t11 -27v-436q0 -147 137 -183z" />
    <glyph glyph-name="v" unicode="v" horiz-adv-x="830" 
d="M464 47q7 -14 1.5 -28.5t-19.5 -21.5q-7 -4 -16 -4q-23 0 -34 21l-321 656q-8 14 -2.5 28.5t19.5 21.5q14 8 28.5 2.5t21.5 -19.5zM730 723q14 -7 23.5 -21.5t3.5 -28.5l-234 -526q-12 -23 -35 -23q-8 0 -15 4q-14 6 -19.5 20.5t0.5 28.5l234 527q6 14 17 19.5t25 -0.5z
" />
    <glyph glyph-name="w" unicode="w" horiz-adv-x="1117" 
d="M100 694l316 -644q7 -14 2 -28t-19 -21q-7 -4 -16 -4q-23 0 -33 21l-316 644q-7 14 -2 28t19 21t28 2t21 -19zM685 713q14 -6 19.5 -20t-0.5 -28l-230 -517q-5 -11 -14 -16.5t-20 -5.5q-8 0 -15 3q-14 6 -19.5 20.5t0.5 28.5l230 517q6 14 20.5 19.5t28.5 -1.5zM1073 665
l-135 -303l-51.5 -115l-46.5 -104.5l-35.5 -80t-18.5 -42.5q-2 -2 -2 -4q-10 -19 -32 -19q-23 0 -33 21l-134 273q-7 14 -2 28t19 21t28 2t21 -19l99 -202l255 574q7 14 21 19.5t28 -1.5q14 -6 19.5 -20t-0.5 -28z" />
    <glyph glyph-name="x" unicode="x" horiz-adv-x="695" 
d="M614 57q9 -12 6.5 -27t-14.5 -24q-11 -8 -22 -8q-18 0 -30 15l-477 649q-9 13 -6.5 28t14.5 24q13 9 28 7t24 -15zM303 303q13 -9 15.5 -24.5t-7.5 -27.5l-174 -238q-12 -15 -30 -15q-11 0 -22 8q-12 9 -14.5 24t6.5 27l174 238q10 12 25 14.5t27 -6.5zM610 710
q12 -9 14.5 -24t-7.5 -27l-174 -238q-11 -15 -30 -15q-12 0 -22 7q-12 9 -14.5 24.5t6.5 27.5l175 238q9 12 24 14.5t28 -7.5z" />
    <glyph glyph-name="y" unicode="y" horiz-adv-x="691" 
d="M598 718q14 -6 20 -20.5t-1 -28.5l-292 -657q-5 -11 -14 -16.5t-20 -5.5q-8 0 -15 3q-14 6 -20 20.5t1 28.5l292 657q6 14 20.5 19.5t28.5 -0.5zM322 351q-8 0 -16.5 3.5t-13.5 11.5l-215 296q-9 13 -6.5 28t14.5 24q13 9 28 7t25 -15l215 -296q9 -13 6.5 -28t-15.5 -24
q-8 -7 -22 -7z" />
    <glyph glyph-name="z" unicode="z" horiz-adv-x="582" 
d="M483 73q17 0 28 -10t11 -27q0 -16 -11 -26t-28 -10h-375q-22 0 -34 20q-10 18 0 38l165 285q8 14 23 18t29 -4t18 -24t-4 -30l-131 -230h309zM88 653q-16 0 -27 10t-11 26q0 17 11 27t27 10h395q23 0 34 -19q10 -20 -1 -38l-157 -265q-11 -19 -33 -19q-10 0 -19 6
q-14 8 -18 23.5t4 29.5l123 209h-328z" />
    <glyph glyph-name="ntilde.001" horiz-adv-x="648" 
d="M531 732q15 0 25.5 -10.5t10.5 -26.5v-653v-3q2 -22 -19 -35q-7 -4 -17 -4t-18.5 5t-13.5 14l-177 285q-7 14 -3 28t18 21q13 8 27.5 4t21.5 -18l108 -174v530q0 16 11 26.5t26 10.5zM325 429q8 -13 3.5 -27.5t-17.5 -21.5q-10 -5 -18 -5q-21 0 -32 19l-108 174v-526
q0 -15 -10.5 -25.5t-26.5 -10.5q-15 0 -25.5 10.5t-10.5 25.5v654q0 22 19 33q14 8 28 3.5t22 -18.5z" />
    <glyph glyph-name="ntilde" unicode="&#xf1;" horiz-adv-x="641" 
d="M561 679q0 15 -11 26t-25 11q-15 0 -25.5 -11t-10.5 -26v-523l-107 172q-7 14 -21 18t-28 -4q-13 -7 -17.5 -21t3.5 -28l174 -281q5 -9 13.5 -13.5t18.5 -4.5q9 0 17 4q10 5 14.5 14.5t3.5 19.5q1 1 1 3v644zM322 417l-174 281q-8 14 -22 18t-27 -4q-19 -10 -19 -32v-645
q0 -15 10.5 -25.5t25.5 -10.5t25.5 10.5t10.5 25.5v519l106 -171q11 -19 32 -19q10 0 17 4q14 8 18 22t-3 27zM140 786q-10 0 -19 6q-11 8 -12.5 20.5t6.5 23.5l10 10.5t27 21t45.5 21t63.5 9.5q22 0 43.5 -7.5t41.5 -16.5l38.5 -15.5t36.5 -7.5q14 0 25.5 5t19.5 11.5
t13 12l5 5.5q8 11 20 13t23 -6t13 -20t-6 -23q-1 -1 -9 -10.5t-22 -20.5t-34.5 -20t-46.5 -9h-2q-27 1 -51.5 9.5t-46.5 18.5q-17 8 -33 13.5t-28 5.5q-25 0 -43 -6t-30 -13t-18 -13l-6 -6q-9 -12 -24 -12z" />
    <glyph glyph-name="ampersand" unicode="&#x26;" horiz-adv-x="793" 
d="M303 462q-11 0 -20 6t-13 17q-5 14 1 27.5t19 18.5q29 11 42.5 36.5t5.5 53.5q-9 35 -41 49q-14 6 -19 19.5t0 27.5q6 13 19 18t27 0q31 -13 52.5 -38t29.5 -57q15 -52 -10 -103q-13 -25 -33.5 -44t-47.5 -28q-6 -3 -12 -3zM416 193q-14 0 -22 8q-12 11 -31 32l-41 46.5
l-45.5 52.5l-44.5 51q-51 59 -77 105t-30 81q-5 49 12 91q19 48 62 70q12 7 26.5 3t20.5 -16q7 -14 3 -27.5t-18 -21.5q-23 -13 -31 -40.5t-6 -52.5q2 -19 21.5 -54t52.5 -79t77 -92.5t95 -94.5q11 -11 12 -25.5t-9 -25.5t-27 -11zM228 -5q-2 0 -4 0.5t-4 0.5
q-44 11 -80.5 34t-65.5 57q-57 68 -63 155q-2 30 3 59.5t16 58.5q28 61 72 93q12 9 26.5 6.5t22.5 -14.5q9 -11 6.5 -25t-13.5 -23q-15 -11 -27.5 -28t-21 -37t-13 -42t-2.5 -43q3 -33 15.5 -62.5t33.5 -53.5t48.5 -41t60.5 -25q14 -5 21.5 -17.5t3.5 -26.5q-3 -12 -13 -19
t-22 -7zM330 -11q-13 0 -22.5 8.5t-11.5 21.5q-2 14 6.5 26t22.5 14h1q92 13 133 114q20 53 24.5 105.5t3.5 84.5q-1 14 9.5 25t24.5 11q15 1 25.5 -9.5t10.5 -24.5q0 -18 -0.5 -42.5t-4 -53t-10.5 -60t-19 -61.5q-55 -138 -187 -158h-1q-2 -1 -5 -1zM677 56h-3
q-18 1 -36 6.5t-34 12t-28.5 13t-19.5 10.5q-13 8 -17.5 21.5t3.5 25.5t22 16t26 -2q24 -14 48 -22t42 -10q14 -2 24 -13t8 -25q-1 -14 -11 -23.5t-24 -9.5zM606 413h-169q-15 0 -25 10t-10 24q0 15 10 25t25 10h169q14 0 24 -10t10 -25q0 -14 -10 -24t-24 -10z" />
    </font>
</defs>
</svg>
