<?xml version="1.0" encoding="utf-8"?>
<!-- Generator: Adobe Illustrator 16.0.0, SVG Export Plug-In . SVG Version: 6.00 Build 0)  -->
<!DOCTYPE svg PUBLIC "-//W3C//DTD SVG 1.1//EN" "http://www.w3.org/Graphics/SVG/1.1/DTD/svg11.dtd">
<svg version="1.1" id="Layer_1" xmlns="http://www.w3.org/2000/svg" xmlns:xlink="http://www.w3.org/1999/xlink" x="0px" y="0px"
	 width="50.623px" height="75px" viewBox="0 0 50.623 75" enable-background="new 0 0 50.623 75" xml:space="preserve">
<g id="Layer_1_1_">
</g>
<g id="Layer_2">
	<g>
		<path fill="#ED1C24" d="M29.653,24.317c0.016,2.357-1.996,4.372-4.358,4.362c-2.298-0.009-4.262-1.926-4.329-4.227
			c-0.068-2.338,1.921-4.411,4.276-4.455C27.578,19.953,29.636,21.965,29.653,24.317z"/>
		<path fill="#ED1C24" d="M25.368,66.186c-2.379,0.034-4.395-1.938-4.404-4.304c-0.008-2.352,2.026-4.385,4.37-4.367
			c2.291,0.019,4.256,1.952,4.317,4.249C29.718,64.125,27.751,66.153,25.368,66.186z"/>
		<path fill="#ED1C24" d="M25.251,51.17c-2.387-0.031-4.345-2.046-4.285-4.408c0.063-2.385,2.079-4.272,4.485-4.199
			c2.334,0.072,4.215,2.004,4.202,4.317C29.642,49.252,27.642,51.202,25.251,51.17z"/>
		<path fill="#ED1C24" d="M14.633,46.813c0.022,2.386-1.934,4.355-4.328,4.357c-2.386,0.002-4.38-1.984-4.355-4.341
			c0.022-2.32,1.92-4.222,4.256-4.265C12.62,42.52,14.609,44.429,14.633,46.813z"/>
		<path fill="#ED1C24" d="M40.259,51.17c-2.391-0.029-4.326-2.029-4.271-4.412c0.055-2.382,2.066-4.266,4.479-4.193
			c2.334,0.07,4.225,2.012,4.207,4.317C44.657,49.249,42.647,51.2,40.259,51.17z"/>
		<path fill="#ED1C24" d="M25.239,31.286c2.405-0.037,4.389,1.887,4.415,4.277c0.025,2.307-1.859,4.251-4.191,4.325
			c-2.412,0.076-4.434-1.806-4.496-4.184C20.905,33.328,22.844,31.323,25.239,31.286z"/>
		<path fill="#ED1C24" d="M17.875,50.04c2.407,0.037,4.258,1.987,4.208,4.435c-0.049,2.361-1.923,4.215-4.272,4.223
			c-2.389,0.008-4.318-1.95-4.305-4.369C13.521,51.912,15.465,50.003,17.875,50.04z"/>
		<path fill="#ED1C24" d="M37.11,54.417c-0.024,2.41-2.01,4.343-4.393,4.277c-2.424-0.066-4.246-2.016-4.184-4.474
			c0.059-2.347,1.951-4.19,4.297-4.182C35.237,50.047,37.136,51.989,37.11,54.417z"/>
	</g>
</g>
</svg>
