<?xml version="1.0" encoding="utf-8"?>
<!-- Generator: Adobe Illustrator 16.0.0, SVG Export Plug-In . SVG Version: 6.00 Build 0)  -->
<!DOCTYPE svg PUBLIC "-//W3C//DTD SVG 1.1//EN" "http://www.w3.org/Graphics/SVG/1.1/DTD/svg11.dtd">
<svg version="1.1" xmlns="http://www.w3.org/2000/svg" xmlns:xlink="http://www.w3.org/1999/xlink" x="0px" y="0px" width="45px"
	 height="45px" viewBox="0 0 45 45" enable-background="new 0 0 45 45" xml:space="preserve">
<g id="Layer_1">
	<g>
		<linearGradient id="SVGID_1_" gradientUnits="userSpaceOnUse" x1="6.707" y1="6.8374" x2="38.6608" y2="38.7912">
			<stop  offset="0" style="stop-color:#322E7C"/>
			<stop  offset="1" style="stop-color:#272861"/>
		</linearGradient>
		<rect x="6.467" y="7.076" display="none" opacity="0.95" fill="url(#SVGID_1_)" width="32.433" height="31.475"/>
		<g>
			
				<image overflow="visible" opacity="0.4" width="44" height="44" xlink:href="CE1F616A.png"  transform="matrix(1 0 0 1 1.0239 2.0239)">
			</image>
			<g>
				<g>
					<path fill="#FFFFFF" d="M5.105,5.532v34.343h35.153V5.532H5.105z M37.427,37.156H7.938V8.326h29.489V37.156z"/>
				</g>
			</g>
		</g>
		<g>
			<g opacity="0.1">
				<path fill="#010101" d="M14.31,16.686c0.949-0.173,2.264-0.302,4.053-0.302c1.941,0,3.364,0.41,4.291,1.186
					c0.863,0.711,1.423,1.854,1.423,3.212c0,1.38-0.431,2.523-1.25,3.298c-1.056,1.058-2.716,1.552-4.592,1.552
					c-0.496,0-0.949-0.021-1.294-0.086v5.477h-2.63V16.686z M16.939,23.455c0.324,0.087,0.755,0.108,1.294,0.108
					c1.984,0,3.191-0.971,3.191-2.674c0-1.617-1.121-2.479-2.954-2.479c-0.733,0-1.25,0.065-1.531,0.13V23.455z"/>
			</g>
			<g>
				<path fill="#FFFFFF" d="M14.31,15.361c0.949-0.173,2.264-0.302,4.053-0.302c1.941,0,3.364,0.41,4.291,1.186
					c0.863,0.711,1.423,1.854,1.423,3.212c0,1.38-0.431,2.522-1.25,3.298c-1.056,1.058-2.716,1.552-4.592,1.552
					c-0.496,0-0.949-0.021-1.294-0.086v5.477h-2.63V15.361z M16.939,22.13c0.324,0.086,0.755,0.108,1.294,0.108
					c1.984,0,3.191-0.97,3.191-2.673c0-1.617-1.121-2.479-2.954-2.479c-0.733,0-1.25,0.065-1.531,0.13V22.13z"/>
			</g>
		</g>
		<g>
			<g opacity="0.1">
				<path fill="#010101" d="M24.895,28.587c0.604,0.367,1.746,0.754,2.694,0.754c1.165,0,1.683-0.475,1.683-1.164
					c0-0.711-0.432-1.078-1.726-1.531c-2.048-0.711-2.91-1.832-2.889-3.061c0-1.854,1.53-3.299,3.967-3.299
					c1.163,0,2.178,0.302,2.781,0.625l-0.517,1.875c-0.453-0.259-1.295-0.604-2.222-0.604c-0.949,0-1.465,0.453-1.465,1.1
					c0,0.668,0.494,0.991,1.832,1.466c1.896,0.689,2.781,1.66,2.802,3.211c0,1.898-1.487,3.299-4.269,3.299
					c-1.271,0-2.414-0.322-3.189-0.754L24.895,28.587z"/>
			</g>
			<g>
				<path fill="#FFFFFF" d="M24.895,27.262c0.604,0.367,1.746,0.754,2.694,0.754c1.165,0,1.683-0.475,1.683-1.164
					c0-0.711-0.432-1.078-1.726-1.531c-2.048-0.711-2.91-1.832-2.889-3.061c0-1.854,1.53-3.298,3.967-3.298
					c1.163,0,2.178,0.302,2.781,0.625l-0.517,1.875c-0.453-0.259-1.295-0.604-2.222-0.604c-0.949,0-1.465,0.453-1.465,1.1
					c0,0.668,0.494,0.991,1.832,1.466c1.896,0.689,2.781,1.66,2.802,3.211c0,1.898-1.487,3.299-4.269,3.299
					c-1.271,0-2.414-0.322-3.189-0.754L24.895,27.262z"/>
			</g>
		</g>
	</g>
</g>
<g id="Layer_2" display="none">
	<g display="inline">
		<linearGradient id="SVGID_2_" gradientUnits="userSpaceOnUse" x1="6.7056" y1="6.8374" x2="38.66" y2="38.7919">
			<stop  offset="0" style="stop-color:#5F4522"/>
			<stop  offset="1" style="stop-color:#373316"/>
		</linearGradient>
		<rect x="6.467" y="7.076" display="none" opacity="0.95" fill="url(#SVGID_2_)" width="32.432" height="31.477"/>
		<g>
			
				<image overflow="visible" opacity="0.4" width="44" height="44" xlink:href="CE1F616E.png"  transform="matrix(1 0 0 1 1.0239 2.0239)">
			</image>
			<g>
				<g>
					<path fill="#FFFFFF" d="M5.069,5.532v34.343h35.152V5.532H5.069z M37.427,37.154H7.938V8.327h29.489V37.154z"/>
				</g>
			</g>
		</g>
		<g>
			<g opacity="0.1">
				<path fill="#010101" d="M17.877,26.942l-1.25,4.119h-2.738l4.656-14.531h3.386l4.72,14.531h-2.846l-1.314-4.119H17.877z
					 M22.039,24.938l-1.143-3.579c-0.28-0.884-0.518-1.875-0.733-2.716H20.12c-0.215,0.84-0.431,1.854-0.69,2.716l-1.121,3.579
					H22.039z"/>
			</g>
			<g>
				<path fill="#FFFFFF" d="M17.877,25.617l-1.25,4.119h-2.738l4.656-14.531h3.386l4.72,14.531h-2.846l-1.314-4.119H17.877z
					 M22.039,23.613l-1.143-3.579c-0.28-0.884-0.518-1.875-0.733-2.716H20.12c-0.215,0.84-0.431,1.854-0.69,2.716l-1.121,3.579
					H22.039z"/>
			</g>
		</g>
		<g>
			<g opacity="0.1">
				<path fill="#010101" d="M30.511,17.63c0,0.797-0.583,1.423-1.51,1.423c-0.883,0-1.467-0.625-1.467-1.423
					c0-0.82,0.605-1.445,1.488-1.445C29.928,16.186,30.488,16.811,30.511,17.63z M27.686,31.062v-10.5h2.674v10.5H27.686z"/>
			</g>
			<g>
				<path fill="#FFFFFF" d="M30.511,16.305c0,0.797-0.583,1.423-1.51,1.423c-0.883,0-1.467-0.625-1.467-1.423
					c0-0.82,0.605-1.445,1.488-1.445C29.928,14.86,30.488,15.485,30.511,16.305z M27.686,29.736v-10.5h2.674v10.5H27.686z"/>
			</g>
		</g>
	</g>
</g>
<g id="Layer_3" display="none">
	<g display="inline">
		
			<image overflow="visible" opacity="0.4" width="33" height="44" xlink:href="CE1F6169.png"  transform="matrix(1 0 0 1 6.0239 2.0239)">
		</image>
		<g>
			<g>
				<g>
					<polygon fill="#FFFFFF" points="18.643,23.562 22.682,23.562 22.682,20.436 18.363,20.436 					"/>
					<path fill="#FFFFFF" d="M10.489,12.294l2.219,24.892l9.959,2.765l9.986-2.768l2.223-24.889H10.489z M30.752,35.599l-8.07,2.236
						v-3.169l-0.014,0.004l-6.254-1.734l-0.428-4.795h1.413h1.652l0.217,2.436l3.401,0.918l0.013-0.003v-4.877H15.85l-0.75-8.413
						l-0.074-0.819h7.645h0.011V14.33h9.967L30.752,35.599z"/>
				</g>
				<path fill="#FFFFFF" d="M12.758,5.53h1.551v1.533h1.419V5.53h1.552v4.642h-1.552V8.617H14.31v1.554h-1.552V5.53L12.758,5.53z"/>
				<path fill="#FFFFFF" d="M19.32,7.069h-1.366V5.53h4.284v1.54h-1.366v3.102H19.32V7.069L19.32,7.069z"/>
				<path fill="#FFFFFF" d="M22.918,5.53h1.618l0.995,1.63l0.994-1.63h1.618v4.642h-1.546v-2.3l-1.066,1.65h-0.027l-1.066-1.65v2.3
					h-1.519V5.53L22.918,5.53z"/>
				<path fill="#FFFFFF" d="M28.915,5.53h1.552v3.107h2.183v1.535h-3.734V5.53L28.915,5.53z"/>
				<polygon fill="#FFFFFF" points="22.671,23.562 22.671,26.614 26.431,26.614 26.076,30.575 22.671,31.493 22.671,34.669 
					28.931,32.936 28.976,32.42 29.694,24.382 29.768,23.562 28.945,23.562 				"/>
				<polygon fill="#FFFFFF" points="22.671,17.383 22.671,19.279 22.671,20.428 22.671,20.436 30.035,20.436 30.035,20.436 
					30.046,20.436 30.107,19.749 30.246,18.202 30.319,17.383 				"/>
			</g>
		</g>
	</g>
</g>
<g id="Layer_4" display="none">
	<g display="inline">
		<rect x="6.466" y="7.076" display="none" opacity="0.95" fill="#F1F2F2" width="32.433" height="31.476"/>
		<g>
			
				<image overflow="visible" opacity="0.4" width="44" height="44" xlink:href="CE1F616B.png"  transform="matrix(1 0 0 1 1.0239 2.0239)">
			</image>
			<g>
				<g>
					<path fill="#FFFFFF" d="M5.069,5.532v34.343h35.153V5.532H5.069z M37.428,37.155H7.937V8.326h29.491V37.155z"/>
				</g>
			</g>
		</g>
		<g>
			<g opacity="0.1">
				<path fill="#010101" d="M18.122,16.484v14.53H15.47v-14.53H18.122z"/>
			</g>
			<g>
				<g>
					<path fill="#FFFFFF" d="M18.122,15.159v14.53H15.47v-14.53H18.122z"/>
				</g>
			</g>
		</g>
		<g>
			<g opacity="0.1">
				<path fill="#010101" d="M29.671,15.708v12.353c0,1.077,0.039,2.242,0.079,2.953h-2.172l-0.099-1.66H27.44
					c-0.573,1.165-1.736,1.898-3.14,1.898c-2.287,0-4.104-2.135-4.104-5.368c-0.02-3.514,1.992-5.605,4.304-5.605
					c1.321,0,2.268,0.604,2.703,1.379h0.039v-5.95H29.671z M27.243,24.893c0-0.216-0.021-0.476-0.06-0.69
					c-0.218-1.034-0.987-1.876-2.091-1.876c-1.561,0-2.429,1.509-2.429,3.472c0,1.918,0.869,3.319,2.409,3.319
					c0.986,0,1.854-0.732,2.091-1.875c0.06-0.237,0.08-0.496,0.08-0.776V24.893z"/>
			</g>
			<g>
				<path fill="#FFFFFF" d="M29.671,14.383v12.353c0,1.077,0.039,2.242,0.079,2.953h-2.172l-0.099-1.66H27.44
					c-0.573,1.165-1.736,1.898-3.14,1.898c-2.287,0-4.104-2.135-4.104-5.368c-0.02-3.514,1.992-5.605,4.304-5.605
					c1.321,0,2.268,0.604,2.703,1.379h0.039v-5.95H29.671z M27.243,23.567c0-0.216-0.021-0.476-0.06-0.69
					c-0.218-1.035-0.987-1.876-2.091-1.876c-1.561,0-2.429,1.509-2.429,3.472c0,1.918,0.869,3.319,2.409,3.319
					c0.986,0,1.854-0.732,2.091-1.875c0.06-0.237,0.08-0.496,0.08-0.776V23.567z"/>
			</g>
		</g>
	</g>
</g>
<g id="Layer_5" display="none">
	<g display="inline">
		
			<image overflow="visible" opacity="0.4" width="33" height="44" xlink:href="CE1F6168.png"  transform="matrix(1 0 0 1 6.0239 2.0239)">
		</image>
		<g>
			<g>
				<g>
					<g>
						<path fill="#FFFFFF" d="M29.676,6.738h-2.032l2.113,2.293v1.091h-4.353V8.844h2.112l-2.112-2.292V5.458h4.271V6.738
							L29.676,6.738z M24.542,6.738h-2.033l2.114,2.293v1.091h-4.354V8.844h2.113l-2.113-2.292V5.458h4.273V6.738L24.542,6.738z
							 M19.457,6.79h-2.193v2.001h2.193v1.331h-3.751V5.458h3.751V6.79z"/>
					</g>
					<path fill="#FFFFFF" d="M10.489,12.251l2.228,24.993l9.999,2.775l10.027-2.778l2.229-24.99H10.489z M30.832,35.649
						l-8.101,2.245v-3.392l-6.274-1.742l-0.43-4.813h1.418h1.659l0.218,2.445l3.409,0.92V20.211h-7.383h-0.01l-0.061-0.688
						l-0.14-1.554l-0.073-0.822h7.667v-2.851h10.007L30.832,35.649z M19.086,23.351h3.645v1.904v1.153v0.009H19.37h-0.01
						l-0.061-0.69l-0.141-1.555L19.086,23.351z"/>
				</g>
				<polygon fill="#FFFFFF" points="22.731,23.35 26.786,23.35 27.066,20.211 22.731,20.211 22.731,17.146 22.742,17.146 
					30.417,17.146 30.344,17.968 29.59,26.416 22.731,26.416 				"/>
				<polygon fill="#FFFFFF" points="26.527,26.285 26.156,30.391 22.738,31.313 22.738,34.502 29.022,32.761 29.067,32.242 
					29.603,26.285 				"/>
			</g>
		</g>
	</g>
</g>
<g id="Layer_6" display="none">
	<g display="inline">
		
			<image overflow="visible" opacity="0.4" width="43" height="44" xlink:href="CE1F6176.png"  transform="matrix(1 0 0 1 1.0239 2.0239)">
		</image>
		<g>
			<path fill="#FFFFFF" d="M5.495,5.532V40.02h34.488V5.532H5.495z M24.275,32.43c0,3.356-1.967,4.884-4.838,4.884
				c-2.595,0-4.098-1.343-4.861-2.96l2.637-1.598c0.51,0.904,0.973,1.667,2.086,1.667c1.065,0,1.737-0.416,1.737-2.035V21.367h3.24
				V32.43z M31.934,37.319c-3.01,0-4.953-1.435-5.906-3.313l2.635-1.531c0.693,1.135,1.598,1.969,3.197,1.969
				c1.342,0,2.201-0.671,2.201-1.598c0-1.112-0.883-1.506-2.359-2.151l-0.811-0.349c-2.34-0.995-3.893-2.245-3.893-4.883
				c0-2.431,1.852-4.281,4.746-4.281c2.061,0,3.541,0.717,4.607,2.595l-2.523,1.62c-0.555-0.996-1.152-1.389-2.084-1.389
				c-0.949,0-1.551,0.602-1.551,1.389c0,0.972,0.602,1.366,1.992,1.967l0.811,0.348c2.754,1.182,4.309,2.384,4.309,5.091
				C37.305,35.722,35.012,37.319,31.934,37.319z"/>
		</g>
	</g>
</g>
</svg>
